HIERARCHY
ROOT Hips
{
	OFFSET 0.000000 0.000000 0.000000
	CHANNELS 6 Xposition Yposition Zposition Xrotation Yrotation Zrotation
	JOINT LeftUpLeg_virtual
	{
		OFFSET 0.000000 0.000000 0.000000
		CHANNELS 3 Xrotation Yrotation Zrotation
		JOINT LeftUpLeg
		{
			OFFSET 11.394100 -6.187798 -0.413800
			CHANNELS 3 Xrotation Yrotation Zrotation
			JOINT LeftLeg
			{
				OFFSET 0.430247 -32.302673 3.732800
				CHANNELS 3 Xrotation Yrotation Zrotation
				JOINT LeftFoot
				{
					OFFSET -0.430247 -48.264931 -6.423300
					CHANNELS 3 Xrotation Yrotation Zrotation
					JOINT LeftToeBase
					{
						OFFSET 4.230900 -16.068199 23.438400
						CHANNELS 3 Xrotation Yrotation Zrotation
						JOINT LeftToe_End
						{
							OFFSET 4.510700 0.695400 19.974600
							CHANNELS 3 Xrotation Yrotation Zrotation
							End Site
							{
								OFFSET 0 0 0
							}
						}
					}
				}
			}
		}
	}
	JOINT RightUpLeg_virtual
	{
		OFFSET 0.000000 0.000000 0.000000
		CHANNELS 3 Xrotation Yrotation Zrotation
		JOINT RightUpLeg
		{
			OFFSET -11.333700 -6.187798 -0.413800
			CHANNELS 3 Xrotation Yrotation Zrotation
			JOINT RightLeg
			{
				OFFSET -0.430392 -32.302628 3.733000
				CHANNELS 3 Xrotation Yrotation Zrotation
				JOINT RightFoot
				{
					OFFSET 0.430392 -48.264973 -6.423500
					CHANNELS 3 Xrotation Yrotation Zrotation
					JOINT RightToeBase
					{
						OFFSET -4.230900 -16.068199 23.438400
						CHANNELS 3 Xrotation Yrotation Zrotation
						JOINT RightToe_End
						{
							OFFSET -4.510700 0.695400 19.974600
							CHANNELS 3 Xrotation Yrotation Zrotation
							End Site
							{
								OFFSET 0 0 0
							}
						}
					}
				}
			}
		}
	}
	JOINT Spine_virtual
	{
		OFFSET 0.000000 0.000000 0.000000
		CHANNELS 3 Xrotation Yrotation Zrotation
		JOINT Spine
		{
			OFFSET -0.002400 12.777504 0.315300
			CHANNELS 3 Xrotation Yrotation Zrotation
			JOINT Spine1
			{
				OFFSET -0.002067 5.816869 0.032633
				CHANNELS 3 Xrotation Yrotation Zrotation
				JOINT Spine1_split
				{
					OFFSET -0.002067 5.816869 0.032633
					CHANNELS 3 Xrotation Yrotation Zrotation
					JOINT Spine2
					{
						OFFSET -0.002067 5.816869 0.032633
						CHANNELS 3 Xrotation Yrotation Zrotation
						JOINT Neck_virtual
						{
							OFFSET 0.000000 0.000000 0.000000
							CHANNELS 3 Xrotation Yrotation Zrotation
							JOINT Neck
							{
								OFFSET -0.003700 21.199493 -0.826900
								CHANNELS 3 Xrotation Yrotation Zrotation
								JOINT Head
								{
									OFFSET 0.000000 20.442200 4.834800
									CHANNELS 3 Xrotation Yrotation Zrotation
									JOINT HeadTop_End
									{
										OFFSET 0.000000 34.668396 4.968400
										CHANNELS 3 Xrotation Yrotation Zrotation
										End Site
										{
											OFFSET 0 0 0
										}
									}
								}
							}
						}
						JOINT LeftShoulder_virtual
						{
							OFFSET 0.000000 0.000000 0.000000
							CHANNELS 3 Xrotation Yrotation Zrotation
							JOINT LeftShoulder
							{
								OFFSET 3.288150 8.794197 -1.372250
								CHANNELS 3 Xrotation Yrotation Zrotation
								JOINT LeftShoulder_split
								{
									OFFSET 3.288150 8.794197 -1.372250
									CHANNELS 3 Xrotation Yrotation Zrotation
									JOINT LeftArm
									{
										OFFSET 11.953299 -2.279007 -0.146200
										CHANNELS 3 Xrotation Yrotation Zrotation
										JOINT LeftForeArm
										{
											OFFSET 18.448900 0.000000 0.000000
											CHANNELS 3 Xrotation Yrotation Zrotation
											JOINT LeftHand
											{
												OFFSET 29.527798 0.000000 0.000000
												CHANNELS 3 Xrotation Yrotation Zrotation
												End Site
												{
													OFFSET 0 0 0
												}
											}
										}
									}
								}
							}
						}
						JOINT RightShoulder_virtual
						{
							OFFSET 0.000000 0.000000 0.000000
							CHANNELS 3 Xrotation Yrotation Zrotation
							JOINT RightShoulder
							{
								OFFSET -3.249400 8.794197 -1.372250
								CHANNELS 3 Xrotation Yrotation Zrotation
								JOINT RightShoulder_split
								{
									OFFSET -3.249400 8.794197 -1.372250
									CHANNELS 3 Xrotation Yrotation Zrotation
									JOINT RightArm
									{
										OFFSET -11.953299 -2.279007 -0.146200
										CHANNELS 3 Xrotation Yrotation Zrotation
										JOINT RightForeArm
										{
											OFFSET -18.448900 0.000000 0.000000
											CHANNELS 3 Xrotation Yrotation Zrotation
											JOINT RightHand
											{
												OFFSET -29.527802 0.000000 0.000000
												CHANNELS 3 Xrotation Yrotation Zrotation
												End Site
												{
													OFFSET 0 0 0
												}
											}
										}
									}
								}
							}
						}
					}
				}
			}
		}
	}
}
MOTION
Frames: 4
Frame Time: 0.03333333
-3.448263 148.876083 -3.318655 0.000000 0.000000 0.000000 6.509444 3.219947 4.144356 -58.052004 12.406378 7.830479 41.396069 8.248540 -2.213837 40.692717 7.208197 4.314093 -9.915105 0.674445 3.397230 0.000000 0.000000 0.000000 7.430608 4.437631 3.259925 -12.092315 0.508003 -4.880194 26.100432 -8.141532 3.425184 25.223836 -13.567184 14.440396 -1.108346 4.249533 0.453025 0.000000 0.000000 0.000000 7.540797 1.164852 4.267648 -10.199755 2.328851 0.686816 -3.569412 0.859383 -0.191967 2.663320 -5.284414 2.293579 0.000000 0.000000 0.000000 -1.258221 -0.177039 0.382056 -21.082224 -0.380115 -2.805631 -2.337617 -0.958331 5.449352 0.000000 0.000000 0.000000 -6.376214 0.422239 -0.389970 14.809906 3.631739 29.136450 9.897602 10.343850 -0.021446 -56.760918 -36.935105 8.526664 -36.072066 -23.051492 6.183783 0.000000 0.000000 0.000000 -6.231503 0.255949 0.695640 4.505929 -8.544206 -32.755747 -4.469150 2.782434 -0.286925 -69.720877 33.895394 11.851930 -27.257198 21.011255 0.077683 0.000000 0.000000 0.000000 
-2.388597 149.734772 -5.512362 0.000000 0.000000 0.000000 6.025490 0.853128 4.538867 -56.919159 10.181252 6.173155 43.601161 7.477960 -1.956879 39.528596 6.607075 3.435256 -8.727179 0.560656 3.081786 0.000000 0.000000 0.000000 7.355998 2.026037 3.597508 -13.320714 -1.570418 -5.449090 30.743279 -7.093608 3.818720 28.028352 -12.402628 14.494899 0.907616 4.089148 0.532864 0.000000 0.000000 0.000000 7.408072 -0.518463 4.742830 -10.335290 2.081189 0.682495 -3.695216 1.145994 0.294392 1.982094 -3.729484 1.221011 0.000000 0.000000 0.000000 -0.294379 0.226558 0.544836 -21.019356 -0.787842 -1.947647 -3.916356 -1.635761 5.310019 0.000000 0.000000 0.000000 -6.018674 0.724056 0.099205 14.698477 3.849368 29.368089 9.351488 8.824137 0.128409 -59.314449 -39.418640 5.011297 -34.910900 -23.651827 7.933149 0.000000 0.000000 0.000000 -5.711634 0.520925 0.887184 4.424363 -8.437475 -33.147427 -4.686071 2.836964 -0.228342 -70.122888 33.455544 11.645123 -27.309297 21.821423 0.025245 0.000000 0.000000 0.000000 
-0.778291 151.100067 -8.720030 0.000000 0.000000 0.000000 5.205930 -3.604560 4.549039 -56.966803 7.564649 4.170710 48.752716 5.090379 -1.235640 36.302783 4.248562 1.985320 -7.231383 0.340900 2.195502 0.000000 0.000000 0.000000 7.132114 -2.573741 3.892242 -13.451639 -3.091728 -6.249460 33.645102 -6.325097 3.760183 31.021678 -10.308234 14.368032 0.170082 3.876612 1.033863 0.000000 0.000000 0.000000 7.087788 -4.384301 4.994531 -9.474542 2.395717 0.835537 -3.835247 2.261498 0.860573 1.651666 -1.793021 0.062286 0.000000 0.000000 0.000000 0.448764 1.513770 0.720362 -20.573553 -1.118380 -1.142626 -7.108259 -1.865619 5.001664 0.000000 0.000000 0.000000 -5.936633 1.911371 0.570492 14.989844 4.716333 29.501312 8.763351 7.354216 -0.149359 -65.506152 -41.318447 -1.209962 -33.344406 -26.376529 10.891701 0.000000 0.000000 0.000000 -5.366422 1.657586 1.226801 5.022844 -7.853548 -33.689618 -4.637722 2.588384 -0.182273 -71.540351 31.771404 12.045600 -27.568896 23.182118 -0.172059 0.000000 0.000000 0.000000 
0.645208 152.706390 -12.066442 0.000000 0.000000 0.000000 4.463306 -9.102860 4.156875 -58.146480 5.264321 2.314075 54.674268 2.372838 -0.330241 31.224667 1.422972 0.651562 -6.436956 -0.051223 1.206718 0.000000 0.000000 0.000000 6.874306 -8.837925 3.974493 -12.108559 -4.199967 -7.058149 33.629580 -6.132739 3.118331 32.265718 -8.611440 12.638423 -1.211018 3.677046 1.936475 0.000000 0.000000 0.000000 6.580713 -10.501891 4.693295 -7.475700 3.261546 1.110384 -3.848278 4.090170 1.466464 1.821150 0.025848 -0.724259 0.000000 0.000000 0.000000 0.855804 3.553242 0.910144 -19.803307 -1.434282 -0.393441 -11.251564 -1.524551 4.662603 0.000000 0.000000 0.000000 -5.897508 3.852353 0.960310 15.588754 6.263599 29.651777 7.417922 6.349813 -0.310799 -72.568103 -41.262624 -7.394037 -31.596568 -29.441964 14.951156 0.000000 0.000000 0.000000 -5.069438 3.610205 1.686773 6.082151 -6.914877 -34.407075 -4.597872 2.256359 -0.204135 -73.513900 29.768768 12.726987 -27.775550 24.518088 -0.662965 0.000000 0.000000 0.000000 
